<svg xmlns="http://www.w3.org/2000/svg" viewBox="0 0 541 113" width="541" height="113">
  <g fill="#000000" fill-rule="evenodd">
    <polyline points="70 46 9 7 0 7 0 17 12 41 58 49 12 57 0 81 0 91 9 91 70 52 70 46" fill="#21f4db"/>
    <path d="M137 41c-11-3-21-5-21-15 0-7 6-11 17-11 13 0 19 5 20 16h15c-2-18-15-28-35-28-19 0-31 9-31 24 0 17 16 21 29 25 16 4 25 5 25 16 0 8-5 14-19 14-16 0-23-7-24-19H99c1 19 17 31 39 31s32-11 32-26c0-19-16-23-33-27m83 27c0 11-8 16-19 16-7 0-10-3-10-9s4-9 15-11c7-2 12-3 14-5v9Zm15 17c-3 0-3-2-3-7V50c0-17-11-22-24-22-19 0-26 9-27 21h12c1-8 4-11 15-11 9 0 12 3 12 8 0 6-6 7-16 9-15 3-26 7-26 21 0 11 8 18 20 18 11 0 18-4 22-11 1 8 4 10 10 10l6-1v-7h-1Zm12 7h12V54c0-10 7-16 17-16 9 0 13 6 13 14v40h12V49c0-14-9-21-21-21-11 0-17 5-21 10v-8h-12v62m94-8c-12 0-17-11-17-23 0-13 5-23 17-23 11 0 18 8 18 23 0 14-7 23-18 23Zm18-80v33h-1c-3-5-9-10-19-10-16 0-28 13-28 34s12 33 28 33a23 23 0 0 0 19-9h1v7h12V4h-12Zm41 89V40h12V30h-12v-8c0-6 2-8 7-8h5V5l-8-1c-10 0-16 4-16 18v8h-8v10h8v53h12"/>
    <polygon points="422 93 434 93 434 5 422 5"/>
    <path d="m531 13 5-13h5v18h-3V3l-6 15h-2l-6-15v15h-3V0h5l5 13ZM518 3h-6v15h-3V3h-6V0h15v3Zm-51 88c-2 9-8 12-13 12l-5-1v10l8 1c9 0 15-5 22-20l24-64h-12l-18 48-18-48h-13l25 62"/>
  </g>
</svg>
